<svg xmlns="http://www.w3.org/2000/svg" xmlns:xlink="http://www.w3.org/1999/xlink" width="120" height="60" viewBox="0 0 120 60">
  <defs>
    <path id="me-a" d="M41,44.1946184 L41,42.0909091 L47,36.0909091 L47,15.6222999 L47,16 L38,16 L38,15 L38,7 L38.457099,7 L12,7 C11.4477153,7 11,7.44771525 11,8 L11,52 C11,52.5522847 11.4477153,53 12,53 L46,53 C46.5522847,53 47,52.5522847 47,52 L47,41.9090909 L43.9090909,45 L41.772844,45 C41.3659721,45.707768 40.8132281,46.1180309 40.114612,46.2307887 C38.8240046,46.439095 38.8240046,45.6523046 37.7252228,45.6523046 C36.626441,45.6523046 35.7313077,45.9097631 35.5482274,46.2307887 C34.9259597,47.3219157 35.7313077,48.5673517 34.2467563,48.8971207 C32.762205,49.2268897 31.8183519,46.439095 30.7643317,46.439095 C29.7103114,46.439095 30.2946678,50.1900847 28.3604207,50.1900847 C26.4261736,50.1900847 27.8341935,45.1893766 27.22218,45.1893766 C26.8550549,45.1893766 26.8361104,49.0620052 26.4421244,49.7995843 C26.0481385,50.5371633 25.6818913,50.5776903 24.9854575,50.5776903 C23.9766703,50.5776903 23.5055221,49.9530003 23.6203603,48.7640197 C23.7547967,47.3721288 24.5618507,45.36092 24.284979,44.9927666 C23.771598,44.3101294 21.5735294,45.0004373 20.9856346,45.4816306 C20.6671401,47.2121666 20.0081975,49.9905439 18.8802408,51.1446543 C18.2416695,51.7980321 17.3543485,51.7867436 16.6395011,51.1446543 C15.3062465,49.9471001 16.3684054,48.4320333 17.0295289,47.4796811 C17.4702779,46.8447796 18.5024159,45.951217 20.125943,44.7989933 L20.3199389,44.1308697 L18.1319688,45.0737615 L17.8136017,44.1308697 C18.870894,43.737699 19.8035263,43.2863308 20.6114986,42.7767649 C20.8787958,40.7702833 21.7549854,37.6772217 23.5327488,38.0273266 C24.7665764,38.2703112 25.1963632,40.0464086 23.8830176,41.5013622 C23.0074539,42.4713313 22.1915581,43.1298848 21.4353304,43.4770225 L21.3119772,44.2117658 C23.3284401,43.5098497 24.5834371,43.5445674 25.0769681,44.3159189 C25.3022782,44.6680615 25.3971002,45.3038258 25.2640657,45.9964885 C24.9599915,47.5796928 24.0636394,49.5436419 25.0769681,49.6925363 C26.083743,49.8404678 25.6883968,47.0377212 26.1197401,45.383267 C26.3124921,44.64395 26.8034533,44.1079742 27.4291275,44.2117658 C28.1714813,44.3349131 28.2875487,45.0712521 28.3604207,45.9010788 C28.4864099,47.3357745 28.1754191,49.1343157 28.5315674,49.1343157 C29.0937115,49.1343157 29.0450075,45.4932097 30.633003,45.383267 C32.2209986,45.2733243 33.7636491,48.2405365 34.1234031,47.8528718 C34.483157,47.4652072 34.2232524,46.349667 34.8795914,45.6523046 C35.5359305,44.9549423 35.918102,44.9186021 37.4068557,44.7757105 C38.8956093,44.6328188 39.2651559,45.4372391 39.9234194,45.3290096 C40.4527825,45.2419734 40.8116427,44.863843 41,44.1946184 Z M46.7827831,15 C46.7603766,14.9718168 46.7363622,14.944737 46.7107992,14.9189049 L39.1678982,7.29660499 C39.1166216,7.24478861 39.0602688,7.19915847 39,7.16019866 L39,15 L46.7827831,15 Z M48,35.0909091 L54.0909091,29 L57,31.9090909 L48,40.9090909 L48,52 C48,53.1045695 47.1045695,54 46,54 L12,54 C10.8954305,54 10,53.1045695 10,52 L10,8 C10,6.8954305 10.8954305,6 12,6 L38.457099,6 C38.9911614,6 39.5030405,6.21359887 39.8786974,6.59320998 L47.4215983,14.2155099 C47.7921507,14.5899628 48,15.0954945 48,15.6222999 L48,35.0909091 Z M43.9090909,43.5454545 L42.4545455,42.0909091 L42.028519,42.5169356 L42.028519,43.971481 L43.4830644,43.971481 L43.9090909,43.5454545 Z M44.6363636,42.8181818 L55.5454545,31.9090909 L54.0909091,30.4545455 L43.1818182,41.3636364 L44.6363636,42.8181818 Z M19,30 L40,30 L40,31 L19,31 L19,30 Z M19,25 L40,25 L40,26 L19,26 L19,25 Z M19,35 L40,35 L40,36 L19,36 L19,35 Z M17.2,49.3749632 C17.2,50.1657626 17.7108372,50.5895969 18.4497194,49.9881847 C19.1886016,49.3867724 19.5689819,47.9299109 19.9462044,46 C19.9193285,46.0237816 17.2,48.1485202 17.2,49.3749632 Z M21.8,41.9702109 C22.3498627,41.5652956 22.7850058,41.1670955 23.1054292,40.7756105 C23.5860644,40.188383 23.8865296,39.1698705 23.4039464,39.0197766 C22.8420547,38.8450159 22.3074059,39.828494 21.8,41.9702109 Z"/>
  </defs>
  <g fill="none" fill-rule="evenodd">
    <mask id="me-b" fill="#fff">
      <use xlink:href="#me-a"/>
    </mask>
    <use fill="#7961F2" xlink:href="#me-a"/>
    <g fill="#212121" mask="url(#me-b)">
      <rect width="120" height="60"/>
    </g>
  </g>
</svg>
