<svg xmlns="http://www.w3.org/2000/svg" xmlns:xlink="http://www.w3.org/1999/xlink" width="120" height="60" viewBox="0 0 120 60">
  <defs>
    <path id="others-a" d="M60.7682954,43 L67.0000295,48.3414864 L73.2328934,43 L60.7682954,43 Z M74,43.6595759 L66.9999705,49.6585136 L60,43.6585389 L60,53 L74,53 L74,43.6595759 Z M19.5,41.7928932 L21.6213203,39.6715729 L22.3284271,40.3786797 L20.2071068,42.5 L22.3284271,44.6213203 L21.6213203,45.3284271 L19.5,43.2071068 L17.3786797,45.3284271 L16.6715729,44.6213203 L18.7928932,42.5 L16.6715729,40.3786797 L17.3786797,39.6715729 L19.5,41.7928932 Z M47,47 L47,15.6222999 L47,16 L38,16 L38,15 L38,7 L38.457099,7 L12,7 C11.4477153,7 11,7.44771525 11,8 L11,52 C11,52.5522847 11.4477153,53 12,53 L46,53 C46.5522847,53 47,52.5522847 47,52 L47,48 L43,48 L43,47 L47,47 Z M48,47 L53.1228435,47 L50.8299503,44.7071068 L51.5370571,44 L55.072591,47.5355339 L51.5355339,51.072591 L50.8293073,50.3663644 L53.1956718,48 L48,48 L48,52 C48,53.1045695 47.1045695,54 46,54 L12,54 C10.8954305,54 10,53.1045695 10,52 L10,8 C10,6.8954305 10.8954305,6 12,6 L38.457099,6 C38.9911614,6 39.5030405,6.21359887 39.8786974,6.59320998 L47.4215983,14.2155099 C47.7921507,14.5899628 48,15.0954945 48,15.6222999 L48,47 Z M46.7827831,15 C46.7603766,14.9718168 46.7363622,14.944737 46.7107992,14.9189049 L39.1678982,7.29660499 C39.1166216,7.24478861 39.0602688,7.19915847 39,7.16019866 L39,15 L46.7827831,15 Z M19,30 L40,30 L40,31 L19,31 L19,30 Z M19,25 L40,25 L40,26 L19,26 L19,25 Z M19,35 L40,35 L40,36 L19,36 L19,35 Z M19,47 L40,47 L40,48 L19,48 L19,47 Z M60,42 L74,42 C74.5522847,42 75,42.4477153 75,43 L75,53 C75,53.5522847 74.5522847,54 74,54 L60,54 C59.4477153,54 59,53.5522847 59,53 L59,43 C59,42.4477153 59.4477153,42 60,42 Z"/>
  </defs>
  <g fill="none" fill-rule="evenodd">
    <mask id="others-b" fill="#fff">
      <use xlink:href="#others-a"/>
    </mask>
    <use fill="#7961F2" xlink:href="#others-a"/>
    <g fill="#212121" mask="url(#others-b)">
      <rect width="120" height="60"/>
    </g>
  </g>
</svg>
